<svg width="712" height="670" viewBox="0 0 712 670" fill="none" xmlns="http://www.w3.org/2000/svg">
<g clip-path="url(#clip0_1_2)">
<path d="M516.326 380.018V565.013L547.27 615.443L549.625 619.279H671.722L674.189 380.018H516.326Z" fill="#E6E6E6"/>
<path opacity="0.1" d="M516.326 380.018V565.013L547.27 615.443L549.169 380.018H516.326Z" fill="black"/>
<path d="M221.566 375.084V560.08L190.622 610.51L188.267 614.345H66.17L63.703 375.084H221.566Z" fill="#E6E6E6"/>
<path opacity="0.1" d="M221.566 375.084V560.08L190.622 610.51L188.723 375.084H221.566Z" fill="black"/>
<path d="M711.188 371.385V382.484H47.67V366.451L109.335 334.385H656.923L711.188 371.385Z" fill="#E6E6E6"/>
<path opacity="0.1" d="M711.188 371.385V382.484H47.67V366.451L711.188 371.385Z" fill="black"/>
<path d="M142.635 426.883H113.035L100.702 418.25H156.201L142.635 426.883Z" fill="#3F3D56"/>
<path d="M142.635 462.649H113.035L100.702 454.016H156.201L142.635 462.649Z" fill="#3F3D56"/>
<path d="M142.635 513.215H113.035L100.702 504.581H156.201L142.635 513.215Z" fill="#3F3D56"/>
<path d="M142.635 563.78H113.035L100.702 555.147H156.201L142.635 563.78Z" fill="#3F3D56"/>
<path d="M595.257 431.816H624.857L637.19 423.183H581.691L595.257 431.816Z" fill="#3F3D56"/>
<path d="M595.257 467.582H624.857L637.19 458.949H581.691L595.257 467.582Z" fill="#3F3D56"/>
<path d="M595.257 518.148H624.857L637.19 509.515H581.691L595.257 518.148Z" fill="#3F3D56"/>
<path d="M595.257 568.713H624.857L637.19 560.08H581.691L595.257 568.713Z" fill="#3F3D56"/>
<path d="M615.414 120.456H366.228C364.991 120.456 363.765 120.7 362.622 121.173C361.478 121.647 360.439 122.341 359.564 123.216C358.689 124.091 357.995 125.13 357.522 126.274C357.048 127.417 356.804 128.643 356.805 129.88V297.738C356.804 298.975 357.048 300.201 357.522 301.344C357.995 302.488 358.689 303.527 359.564 304.402C360.439 305.277 361.478 305.971 362.622 306.445C363.765 306.918 364.991 307.162 366.228 307.162H460.821L457.277 329.788C457.277 329.788 437.025 340.547 451.265 340.864C465.505 341.18 532.593 340.864 532.593 340.864C532.593 340.864 545.567 340.864 524.998 329.472L521.664 307.162H615.414C616.651 307.162 617.877 306.918 619.02 306.445C620.164 305.971 621.203 305.277 622.078 304.402C622.953 303.527 623.647 302.488 624.121 301.344C624.594 300.201 624.838 298.975 624.838 297.738V129.88C624.838 128.643 624.594 127.417 624.121 126.274C623.647 125.13 622.953 124.091 622.078 123.216C621.203 122.341 620.164 121.647 619.02 121.173C617.877 120.7 616.651 120.456 615.414 120.456Z" fill="#F2F2F2"/>
<path d="M615.819 130.424H365.823V270.295H615.819V130.424Z" fill="black"/>
<path d="M490.821 127.576C491.695 127.576 492.403 126.868 492.403 125.994C492.403 125.12 491.695 124.412 490.821 124.412C489.947 124.412 489.239 125.12 489.239 125.994C489.239 126.868 489.947 127.576 490.821 127.576Z" fill="#F2F2F2"/>
<path d="M490.821 300.358C494.142 300.358 496.834 297.666 496.834 294.346C496.834 291.025 494.142 288.333 490.821 288.333C487.5 288.333 484.809 291.025 484.809 294.346C484.809 297.666 487.5 300.358 490.821 300.358Z" fill="#F2F2F2"/>
<path d="M481.452 357.952V361.117H311.202V358.585L311.436 357.952L315.632 346.56H477.971L481.452 357.952Z" fill="#3F3D56"/>
<path d="M546.97 354.854C546.659 356.18 545.489 357.579 542.843 358.901C533.35 363.648 514.046 357.636 514.046 357.636C514.046 357.636 499.173 355.104 499.173 348.459C499.59 348.173 500.026 347.914 500.477 347.683C504.468 345.572 517.702 340.361 541.167 347.904C542.896 348.447 544.44 349.458 545.628 350.827C546.154 351.344 546.55 351.979 546.783 352.679C547.016 353.379 547.08 354.124 546.97 354.854Z" fill="#3F3D56"/>
<path opacity="0.1" d="M546.97 354.854C535.35 359.306 524.992 359.639 514.363 352.256C510.343 349.284 505.476 347.681 500.477 347.683C504.468 345.572 517.702 340.361 541.167 347.904C542.896 348.447 544.44 349.458 545.628 350.827C546.154 351.344 546.55 351.979 546.783 352.679C547.016 353.379 547.08 354.124 546.97 354.854Z" fill="black" fill-opacity="0.56"/>
<path d="M532.4 352.256C534.672 352.256 536.514 351.689 536.514 350.99C536.514 350.291 534.672 349.724 532.4 349.724C530.128 349.724 528.286 350.291 528.286 350.99C528.286 351.689 530.128 352.256 532.4 352.256Z" fill="#F2F2F2"/>
<path opacity="0.1" d="M481.452 357.952V361.117H311.202V358.585L311.436 357.952H481.452Z" fill="black"/>
<path d="M82.1377 74.9052C82.1377 74.9052 85.5911 103.684 72.9286 105.986C60.2661 108.288 84.4399 147.427 84.4399 147.427L141.997 154.334L128.183 108.288C128.183 108.288 118.974 104.835 124.73 81.812C130.485 58.7893 82.1377 74.9052 82.1377 74.9052Z" fill="#422413"/>
<path d="M47.028 569.318L51.633 632.631H75.806L68.9 569.318H47.028Z" fill="#422413"/>
<path d="M224.303 449.6L227.756 502.552L254.233 491.041L243.872 447.298L224.303 449.6Z" fill="#422413"/>
<path d="M29.761 327.58C29.761 327.58 30.9121 394.345 37.819 416.217C44.7259 438.089 43.5747 439.24 42.4236 442.693C41.2724 446.147 40.1213 443.844 40.1213 449.6C40.1213 455.356 37.819 546.295 40.1213 554.353C42.4235 562.411 33.2145 576.225 40.1213 577.376C47.0281 578.527 79.2599 577.376 80.411 570.469C81.5622 563.562 71.202 561.26 75.8065 556.656C80.4111 552.051 87.3179 457.658 87.3179 457.658L103.434 392.043L133.363 357.509H196.676L216.245 433.484C216.245 433.484 208.187 455.356 213.943 455.356C219.699 455.356 254.233 462.263 254.233 436.938C254.233 411.613 242.721 336.789 240.419 334.486C238.117 332.184 241.57 324.126 238.117 320.673C234.663 317.219 194.374 293.046 179.409 288.441C164.444 283.836 143.451 278.356 143.451 278.356L29.761 327.58Z" fill="black"/>
<path d="M254.233 481.832C254.233 481.832 236.966 476.076 228.908 493.343C220.85 510.61 224.303 515.215 224.303 515.215C224.303 515.215 250.779 524.424 255.384 519.819C257.387 517.816 263.748 517.12 270.296 516.973C280.269 516.749 282.923 502.64 273.504 499.354C273.223 499.256 272.939 499.171 272.651 499.099C263.442 496.797 254.233 481.832 254.233 481.832Z" fill="#121212"/>
<path d="M108.038 93.899C127.111 93.899 142.572 78.4375 142.572 59.3649C142.572 40.2922 127.111 24.8308 108.038 24.8308C88.9656 24.8308 73.5042 40.2922 73.5042 59.3649C73.5042 78.4375 88.9656 93.899 108.038 93.899Z" fill="#422413"/>
<path d="M63.144 120.375C63.144 120.375 119.55 131.886 133.363 113.468C147.177 95.0501 152.933 165.269 152.933 165.269L159.839 238.942L149.479 279.232C149.479 279.232 95.3758 322.975 78.1087 326.428C60.8417 329.882 34.3655 332.184 34.3655 332.184C34.3655 332.184 42.4236 204.408 42.4236 202.106C42.4236 199.803 63.144 120.375 63.144 120.375Z" fill="white"/>
<path d="M80.2983 98.7859C80.2983 98.7859 67.7485 91.5967 64.2951 98.5035C60.8417 105.41 28.6099 122.677 25.1565 122.677C21.7031 122.677 32.0633 218.222 27.4587 229.733C22.8542 241.244 0.982611 325.277 13.6451 332.184C26.3076 339.091 17.0985 325.277 29.761 342.544C42.4235 359.811 104.585 359.811 108.038 352.905C111.492 345.998 80.411 294.197 86.1667 245.849C91.9224 197.501 101.131 130.735 93.0735 121.526C85.0156 112.317 80.2983 98.7859 80.2983 98.7859Z" fill="white"/>
<path d="M121.852 106.561L123.455 101.043C123.455 101.043 171.351 116.922 173.653 127.282C175.955 137.642 174.804 210.164 166.746 215.919C158.688 221.675 147.177 230.884 155.235 244.698C163.293 258.511 172.502 273.476 179.409 274.627C186.316 275.778 198.978 283.836 195.525 291.894C192.071 299.952 150.63 284.988 150.63 284.988C150.63 284.988 123.003 264.267 124.154 232.035C125.305 199.803 121.852 106.561 121.852 106.561Z" fill="white"/>
<path d="M162.142 242.396L134.514 294.197C134.514 294.197 94.2246 335.638 117.247 340.242C140.27 344.847 152.933 302.255 152.933 302.255L182.862 259.663L162.142 242.396Z" fill="#422413"/>
<path d="M95.3735 9.01972C93.9566 8.9248 92.5372 9.17368 91.2622 9.74065C90.1095 10.5018 89.1594 11.4862 88.4813 12.6219C85.3558 16.8725 81.2814 20.4851 76.52 23.2278C72.9659 25.2716 68.4474 27.8199 69.0554 31.5882C69.3855 32.8516 69.973 34.0484 70.7878 35.1174C74.0779 40.3653 75.3876 46.4392 74.5189 52.4201L84.2916 39.5779C85.8429 37.5393 88.5378 35.2381 90.88 36.5183C91.6642 36.947 92.1792 37.7158 92.9957 38.092C94.9441 38.9895 97.0169 37.2737 98.7416 36.0584C104.689 31.8675 113.146 32.9654 120.547 34.2712C124.041 34.8876 127.879 35.6964 129.944 38.3176C133.376 42.6736 129.792 48.9678 131.796 54C132.356 53.6451 132.833 53.192 133.196 52.6676C133.56 52.1431 133.803 51.5581 133.912 50.9471C136.705 51.0252 140.129 50.7769 141.326 48.4932C141.69 47.5982 141.884 46.654 141.9 45.7006C142.339 41.8646 144.413 38.365 145.787 34.714C147.161 31.063 147.759 26.7843 145.44 23.5473C144.592 22.4505 143.568 21.4738 142.402 20.6491C129.244 10.6533 111.943 9.00489 95.3735 9.01972Z" fill="black"/>
<path d="M162.142 122.677L172.867 125.524C172.867 125.524 197.827 189.443 192.071 233.186C186.316 276.93 182.862 267.721 182.862 267.721C182.862 267.721 173.653 247 152.933 251.605L162.142 122.677Z" fill="white"/>
<path d="M48.6229 624.263C45.847 628.036 46.4035 633.428 43.9446 637.414C41.8132 640.869 37.7962 642.681 35.1302 645.743C34.2795 646.76 33.5212 647.851 32.8641 649.003C30.391 653.145 28.3808 658.454 30.8165 662.619C32.7758 665.969 36.8943 667.279 40.6715 668.171C45.4455 669.299 50.4058 670.202 55.235 669.34C60.0642 668.478 64.7838 665.521 66.5057 660.927C66.8441 659.772 67.2464 658.637 67.7108 657.527C70.3282 652.374 78.5383 652.318 81.217 647.197C83.0917 643.613 81.3684 639.28 79.6459 635.621L74.3848 624.444C72.6389 620.735 65.5611 622.868 61.8714 621.979C57.0591 620.82 52.0848 619.543 48.6229 624.263Z" fill="#121212"/>
<path d="M10.1917 265.418L58.5394 340.242C58.5394 340.242 88.4689 378.23 97.678 360.963C106.887 343.696 65.4462 314.917 65.4462 314.917L34.3655 257.36L10.1917 265.418Z" fill="#422413"/>
<path d="M34.3655 124.98L25.1564 122.677C25.1564 122.677 6.73827 128.433 2.13372 152.607C-2.47081 176.781 0.982583 273.476 6.73826 274.627C12.4939 275.778 35.1655 257.791 38.7945 261.604C42.4235 265.418 30.9121 245.849 34.3655 235.489C37.8189 225.128 34.3655 124.98 34.3655 124.98Z" fill="white"/>
<path d="M458.714 148H427.857V162.608H458.714V148Z" fill="#C5C5C5" fill-opacity="0.21"/>
<path d="M565.571 148H554.714V162.608H565.571V148Z" fill="#C5C5C5" fill-opacity="0.21"/>
<path d="M587.286 148H576.429V162.608H587.286V148Z" fill="#C5C5C5" fill-opacity="0.21"/>
<path d="M543.286 148H469.571V162.608H543.286V148Z" fill="#C5C5C5" fill-opacity="0.21"/>
<path d="M419.857 242.392H389V257H419.857V242.392Z" fill="#C5C5C5" fill-opacity="0.21"/>
<path d="M526.714 242.392H515.857V257H526.714V242.392Z" fill="#C5C5C5" fill-opacity="0.21"/>
<path d="M548.429 242.392H537.571V257H548.429V242.392Z" fill="#C5C5C5" fill-opacity="0.21"/>
<path d="M504.429 242.392H430.714V257H504.429V242.392Z" fill="#C5C5C5" fill-opacity="0.21"/>
<path d="M547.286 180.588H516.429V195.196H547.286V180.588Z" fill="#C5C5C5" fill-opacity="0.21"/>
<path d="M589 180.588H558.143V195.196H589V180.588Z" fill="#C5C5C5" fill-opacity="0.21"/>
<path d="M399.857 180.588H389V195.196H399.857V180.588Z" fill="#C5C5C5" fill-opacity="0.21"/>
<path d="M421.571 180.588H410.714V195.196H421.571V180.588Z" fill="#C5C5C5" fill-opacity="0.21"/>
<path d="M506.143 180.588H432.429V195.196H506.143V180.588Z" fill="#C5C5C5" fill-opacity="0.21"/>
<path d="M483.286 212.052H452.429V226.66H483.286V212.052Z" fill="#C5C5C5" fill-opacity="0.21"/>
<path d="M441.571 212.052H410.714V226.66H441.571V212.052Z" fill="#C5C5C5" fill-opacity="0.21"/>
<path d="M399.857 212.052H389V226.66H399.857V212.052Z" fill="#C5C5C5" fill-opacity="0.21"/>
<path d="M589 212.052H578.143V226.66H589V212.052Z" fill="#C5C5C5" fill-opacity="0.21"/>
<path d="M567.286 212.052H493.571V226.66H567.286V212.052Z" fill="#C5C5C5" fill-opacity="0.21"/>
<path d="M413.28 201.64C413.408 202.152 413.472 202.792 413.472 203.56C413.472 204.296 413.408 204.936 413.28 205.48C413.408 205.992 413.472 206.632 413.472 207.4C413.472 208.136 413.408 208.776 413.28 209.32H411.36C411.488 209.832 411.552 210.472 411.552 211.24C411.552 211.976 411.488 212.616 411.36 213.16H409.44C409.568 213.672 409.632 214.312 409.632 215.08C409.632 215.816 409.568 216.456 409.44 217H397.92C397.792 216.456 397.728 215.816 397.728 215.08C397.728 214.312 397.792 213.672 397.92 213.16C397.792 212.616 397.728 211.976 397.728 211.24C397.728 210.472 397.792 209.832 397.92 209.32C397.792 208.776 397.728 208.136 397.728 207.4C397.728 206.632 397.792 205.992 397.92 205.48C397.792 204.936 397.728 204.296 397.728 203.56C397.728 202.792 397.792 202.152 397.92 201.64C397.792 201.096 397.728 200.456 397.728 199.72C397.728 198.952 397.792 198.312 397.92 197.8C397.792 197.256 397.728 196.616 397.728 195.88C397.728 195.112 397.792 194.472 397.92 193.96C397.792 193.416 397.728 192.776 397.728 192.04C397.728 191.272 397.792 190.632 397.92 190.12H409.44C409.568 190.632 409.632 191.272 409.632 192.04C409.632 192.776 409.568 193.416 409.44 193.96H411.36C411.488 194.472 411.552 195.112 411.552 195.88C411.552 196.616 411.488 197.256 411.36 197.8H413.28C413.408 198.312 413.472 198.952 413.472 199.72C413.472 200.456 413.408 201.096 413.28 201.64ZM409.44 209.32C409.312 208.776 409.248 208.136 409.248 207.4C409.248 206.632 409.312 205.992 409.44 205.48C409.312 204.936 409.248 204.296 409.248 203.56C409.248 202.792 409.312 202.152 409.44 201.64C409.312 201.096 409.248 200.456 409.248 199.72C409.248 198.952 409.312 198.312 409.44 197.8H407.52C407.392 197.256 407.328 196.616 407.328 195.88C407.328 195.112 407.392 194.472 407.52 193.96H401.76C401.888 194.472 401.952 195.112 401.952 195.88C401.952 196.616 401.888 197.256 401.76 197.8C401.888 198.312 401.952 198.952 401.952 199.72C401.952 200.456 401.888 201.096 401.76 201.64C401.888 202.152 401.952 202.792 401.952 203.56C401.952 204.296 401.888 204.936 401.76 205.48C401.888 205.992 401.952 206.632 401.952 207.4C401.952 208.136 401.888 208.776 401.76 209.32C401.888 209.832 401.952 210.472 401.952 211.24C401.952 211.976 401.888 212.616 401.76 213.16H407.52C407.392 212.616 407.328 211.976 407.328 211.24C407.328 210.472 407.392 209.832 407.52 209.32H409.44ZM432.691 203.56C432.691 204.296 432.627 204.936 432.499 205.48C432.627 205.992 432.691 206.632 432.691 207.4C432.691 208.136 432.627 208.776 432.499 209.32H422.419C422.547 209.832 422.611 210.472 422.611 211.24C422.611 211.976 422.547 212.616 422.419 213.16H430.579C430.707 213.672 430.771 214.312 430.771 215.08C430.771 215.816 430.707 216.456 430.579 217H420.979C420.851 216.456 420.787 215.816 420.787 215.08C420.787 214.312 420.851 213.672 420.979 213.16H418.579C418.451 212.616 418.387 211.976 418.387 211.24C418.387 210.472 418.451 209.832 418.579 209.32H417.139C417.011 208.776 416.947 208.136 416.947 207.4C416.947 206.632 417.011 205.992 417.139 205.48H418.579C418.451 204.936 418.387 204.296 418.387 203.56C418.387 202.792 418.451 202.152 418.579 201.64H420.979C420.851 201.096 420.787 200.456 420.787 199.72C420.787 198.952 420.851 198.312 420.979 197.8H430.579C430.707 198.312 430.771 198.952 430.771 199.72C430.771 200.456 430.707 201.096 430.579 201.64H432.499C432.627 202.152 432.691 202.792 432.691 203.56ZM428.659 205.48C428.531 204.936 428.467 204.296 428.467 203.56C428.467 202.792 428.531 202.152 428.659 201.64H422.419C422.547 202.152 422.611 202.792 422.611 203.56C422.611 204.296 422.547 204.936 422.419 205.48H428.659ZM450.95 211.24C450.95 211.976 450.886 212.616 450.758 213.16H448.838C448.966 213.672 449.03 214.312 449.03 215.08C449.03 215.816 448.966 216.456 448.838 217H438.278C438.15 216.456 438.086 215.816 438.086 215.08C438.086 214.312 438.15 213.672 438.278 213.16H446.918C446.79 212.616 446.726 211.976 446.726 211.24C446.726 210.472 446.79 209.832 446.918 209.32H439.238C439.11 208.776 439.046 208.136 439.046 207.4C439.046 206.632 439.11 205.992 439.238 205.48H437.318C437.19 204.936 437.126 204.296 437.126 203.56C437.126 202.792 437.19 202.152 437.318 201.64H439.238C439.11 201.096 439.046 200.456 439.046 199.72C439.046 198.952 439.11 198.312 439.238 197.8H449.798C449.926 198.312 449.99 198.952 449.99 199.72C449.99 200.456 449.926 201.096 449.798 201.64H441.158C441.286 202.152 441.35 202.792 441.35 203.56C441.35 204.296 441.286 204.936 441.158 205.48H448.838C448.966 205.992 449.03 206.632 449.03 207.4C449.03 208.136 448.966 208.776 448.838 209.32H450.758C450.886 209.832 450.95 210.472 450.95 211.24ZM461.336 193.96C461.208 193.416 461.144 192.776 461.144 192.04C461.144 191.272 461.208 190.632 461.336 190.12H465.176C465.304 190.632 465.368 191.272 465.368 192.04C465.368 192.776 465.304 193.416 465.176 193.96H461.336ZM469.016 213.16C469.144 213.672 469.208 214.312 469.208 215.08C469.208 215.816 469.144 216.456 469.016 217H457.496C457.368 216.456 457.304 215.816 457.304 215.08C457.304 214.312 457.368 213.672 457.496 213.16H461.336C461.208 212.616 461.144 211.976 461.144 211.24C461.144 210.472 461.208 209.832 461.336 209.32C461.208 208.776 461.144 208.136 461.144 207.4C461.144 206.632 461.208 205.992 461.336 205.48C461.208 204.936 461.144 204.296 461.144 203.56C461.144 202.792 461.208 202.152 461.336 201.64H458.456C458.328 201.096 458.264 200.456 458.264 199.72C458.264 198.952 458.328 198.312 458.456 197.8H465.176C465.304 198.312 465.368 198.952 465.368 199.72C465.368 200.456 465.304 201.096 465.176 201.64C465.304 202.152 465.368 202.792 465.368 203.56C465.368 204.296 465.304 204.936 465.176 205.48C465.304 205.992 465.368 206.632 465.368 207.4C465.368 208.136 465.304 208.776 465.176 209.32C465.304 209.832 465.368 210.472 465.368 211.24C465.368 211.976 465.304 212.616 465.176 213.16H469.016ZM490.155 201.64C490.283 202.152 490.347 202.792 490.347 203.56C490.347 204.296 490.283 204.936 490.155 205.48H486.315C486.187 204.936 486.123 204.296 486.123 203.56C486.123 202.792 486.187 202.152 486.315 201.64H482.955C483.083 202.152 483.147 202.792 483.147 203.56C483.147 204.296 483.083 204.936 482.955 205.48H481.515C481.643 205.992 481.707 206.632 481.707 207.4C481.707 208.136 481.643 208.776 481.515 209.32C481.643 209.832 481.707 210.472 481.707 211.24C481.707 211.976 481.643 212.616 481.515 213.16H484.395C484.523 213.672 484.587 214.312 484.587 215.08C484.587 215.816 484.523 216.456 484.395 217H474.795C474.667 216.456 474.603 215.816 474.603 215.08C474.603 214.312 474.667 213.672 474.795 213.16H477.675C477.547 212.616 477.483 211.976 477.483 211.24C477.483 210.472 477.547 209.832 477.675 209.32C477.547 208.776 477.483 208.136 477.483 207.4C477.483 206.632 477.547 205.992 477.675 205.48C477.547 204.936 477.483 204.296 477.483 203.56C477.483 202.792 477.547 202.152 477.675 201.64H474.795C474.667 201.096 474.603 200.456 474.603 199.72C474.603 198.952 474.667 198.312 474.795 197.8H479.595C479.723 198.312 479.787 198.952 479.787 199.72C479.787 200.456 479.723 201.096 479.595 201.64H481.515C481.387 201.096 481.323 200.456 481.323 199.72C481.323 198.952 481.387 198.312 481.515 197.8H488.715C488.843 198.312 488.907 198.952 488.907 199.72C488.907 200.456 488.843 201.096 488.715 201.64H490.155ZM528.785 192.04C528.785 192.776 528.721 193.416 528.593 193.96H522.833C522.961 194.472 523.025 195.112 523.025 195.88C523.025 196.616 522.961 197.256 522.833 197.8C522.961 198.312 523.025 198.952 523.025 199.72C523.025 200.456 522.961 201.096 522.833 201.64C522.961 202.152 523.025 202.792 523.025 203.56C523.025 204.296 522.961 204.936 522.833 205.48C522.961 205.992 523.025 206.632 523.025 207.4C523.025 208.136 522.961 208.776 522.833 209.32C522.961 209.832 523.025 210.472 523.025 211.24C523.025 211.976 522.961 212.616 522.833 213.16C522.961 213.672 523.025 214.312 523.025 215.08C523.025 215.816 522.961 216.456 522.833 217H518.993C518.865 216.456 518.801 215.816 518.801 215.08C518.801 214.312 518.865 213.672 518.993 213.16C518.865 212.616 518.801 211.976 518.801 211.24C518.801 210.472 518.865 209.832 518.993 209.32C518.865 208.776 518.801 208.136 518.801 207.4C518.801 206.632 518.865 205.992 518.993 205.48C518.865 204.936 518.801 204.296 518.801 203.56C518.801 202.792 518.865 202.152 518.993 201.64C518.865 201.096 518.801 200.456 518.801 199.72C518.801 198.952 518.865 198.312 518.993 197.8C518.865 197.256 518.801 196.616 518.801 195.88C518.801 195.112 518.865 194.472 518.993 193.96H513.233C513.105 193.416 513.041 192.776 513.041 192.04C513.041 191.272 513.105 190.632 513.233 190.12H528.593C528.721 190.632 528.785 191.272 528.785 192.04ZM548.003 203.56C548.003 204.296 547.939 204.936 547.811 205.48C547.939 205.992 548.003 206.632 548.003 207.4C548.003 208.136 547.939 208.776 547.811 209.32H537.731C537.859 209.832 537.923 210.472 537.923 211.24C537.923 211.976 537.859 212.616 537.731 213.16H545.891C546.019 213.672 546.083 214.312 546.083 215.08C546.083 215.816 546.019 216.456 545.891 217H536.291C536.163 216.456 536.099 215.816 536.099 215.08C536.099 214.312 536.163 213.672 536.291 213.16H533.891C533.763 212.616 533.699 211.976 533.699 211.24C533.699 210.472 533.763 209.832 533.891 209.32H532.451C532.323 208.776 532.259 208.136 532.259 207.4C532.259 206.632 532.323 205.992 532.451 205.48H533.891C533.763 204.936 533.699 204.296 533.699 203.56C533.699 202.792 533.763 202.152 533.891 201.64H536.291C536.163 201.096 536.099 200.456 536.099 199.72C536.099 198.952 536.163 198.312 536.291 197.8H545.891C546.019 198.312 546.083 198.952 546.083 199.72C546.083 200.456 546.019 201.096 545.891 201.64H547.811C547.939 202.152 548.003 202.792 548.003 203.56ZM543.971 205.48C543.843 204.936 543.779 204.296 543.779 203.56C543.779 202.792 543.843 202.152 543.971 201.64H537.731C537.859 202.152 537.923 202.792 537.923 203.56C537.923 204.296 537.859 204.936 537.731 205.48H543.971ZM567.03 209.32C567.158 209.832 567.222 210.472 567.222 211.24C567.222 211.976 567.158 212.616 567.03 213.16H565.11C565.238 213.672 565.302 214.312 565.302 215.08C565.302 215.816 565.238 216.456 565.11 217H555.51C555.382 216.456 555.318 215.816 555.318 215.08C555.318 214.312 555.382 213.672 555.51 213.16H553.59C553.462 212.616 553.398 211.976 553.398 211.24C553.398 210.472 553.462 209.832 553.59 209.32H551.67C551.542 208.776 551.478 208.136 551.478 207.4C551.478 206.632 551.542 205.992 551.67 205.48H553.59C553.462 204.936 553.398 204.296 553.398 203.56C553.398 202.792 553.462 202.152 553.59 201.64H555.51C555.382 201.096 555.318 200.456 555.318 199.72C555.318 198.952 555.382 198.312 555.51 197.8H565.11C565.238 198.312 565.302 198.952 565.302 199.72C565.302 200.456 565.238 201.096 565.11 201.64H567.03C567.158 202.152 567.222 202.792 567.222 203.56C567.222 204.296 567.158 204.936 567.03 205.48H563.19C563.062 204.936 562.998 204.296 562.998 203.56C562.998 202.792 563.062 202.152 563.19 201.64H557.43C557.558 202.152 557.622 202.792 557.622 203.56C557.622 204.296 557.558 204.936 557.43 205.48H555.51C555.638 205.992 555.702 206.632 555.702 207.4C555.702 208.136 555.638 208.776 555.51 209.32H557.43C557.558 209.832 557.622 210.472 557.622 211.24C557.622 211.976 557.558 212.616 557.43 213.16H563.19C563.062 212.616 562.998 211.976 562.998 211.24C562.998 210.472 563.062 209.832 563.19 209.32H567.03ZM574.921 199.72C574.921 200.456 574.857 201.096 574.729 201.64H576.169C576.297 202.152 576.361 202.792 576.361 203.56C576.361 204.296 576.297 204.936 576.169 205.48H574.729C574.857 205.992 574.921 206.632 574.921 207.4C574.921 208.136 574.857 208.776 574.729 209.32C574.857 209.832 574.921 210.472 574.921 211.24C574.921 211.976 574.857 212.616 574.729 213.16C574.857 213.672 574.921 214.312 574.921 215.08C574.921 215.816 574.857 216.456 574.729 217H570.889C570.761 216.456 570.697 215.816 570.697 215.08C570.697 214.312 570.761 213.672 570.889 213.16C570.761 212.616 570.697 211.976 570.697 211.24C570.697 210.472 570.761 209.832 570.889 209.32C570.761 208.776 570.697 208.136 570.697 207.4C570.697 206.632 570.761 205.992 570.889 205.48C570.761 204.936 570.697 204.296 570.697 203.56C570.697 202.792 570.761 202.152 570.889 201.64C570.761 201.096 570.697 200.456 570.697 199.72C570.697 198.952 570.761 198.312 570.889 197.8C570.761 197.256 570.697 196.616 570.697 195.88C570.697 195.112 570.761 194.472 570.889 193.96C570.761 193.416 570.697 192.776 570.697 192.04C570.697 191.272 570.761 190.632 570.889 190.12H574.729C574.857 190.632 574.921 191.272 574.921 192.04C574.921 192.776 574.857 193.416 574.729 193.96C574.857 194.472 574.921 195.112 574.921 195.88C574.921 196.616 574.857 197.256 574.729 197.8C574.857 198.312 574.921 198.952 574.921 199.72ZM586.249 205.48C586.377 205.992 586.441 206.632 586.441 207.4C586.441 208.136 586.377 208.776 586.249 209.32C586.377 209.832 586.441 210.472 586.441 211.24C586.441 211.976 586.377 212.616 586.249 213.16C586.377 213.672 586.441 214.312 586.441 215.08C586.441 215.816 586.377 216.456 586.249 217H582.409C582.281 216.456 582.217 215.816 582.217 215.08C582.217 214.312 582.281 213.672 582.409 213.16C582.281 212.616 582.217 211.976 582.217 211.24C582.217 210.472 582.281 209.832 582.409 209.32C582.281 208.776 582.217 208.136 582.217 207.4C582.217 206.632 582.281 205.992 582.409 205.48C582.281 204.936 582.217 204.296 582.217 203.56C582.217 202.792 582.281 202.152 582.409 201.64H576.169C576.041 201.096 575.977 200.456 575.977 199.72C575.977 198.952 576.041 198.312 576.169 197.8H583.849C583.977 198.312 584.041 198.952 584.041 199.72C584.041 200.456 583.977 201.096 583.849 201.64H586.249C586.377 202.152 586.441 202.792 586.441 203.56C586.441 204.296 586.377 204.936 586.249 205.48Z" fill="#03C10C"/>
</g>
<defs>
<clipPath id="clip0_1_2">
<rect width="711.188" height="669.683" fill="white"/>
</clipPath>
</defs>
</svg>
